<svg width="1440" height="740" viewBox="0 0 1440 740" fill="none" xmlns="http://www.w3.org/2000/svg">
<path d="M818.476 564.164V584.092H831.78L862.546 586.437V551.27L823.881 549.629L817.021 562.992L818.476 564.164Z" fill="#E7E7C8"/>
<path d="M825.128 551.27L831.364 561.351L859.636 562.992" stroke="white"/>
<path d="M830.949 563.461L832.196 564.868V578.231H830.949" stroke="white"/>
<path d="M849.844 558.303V583.475H866.545L905.166 586.437V542.015L856.628 539.942L848.017 556.822L849.844 558.303Z" fill="#E7E7C8"/>
<path d="M858.194 542.015L866.023 554.749L901.513 556.822" stroke="white"/>
<path d="M865.501 557.415L867.067 559.191V576.072H865.501" stroke="white"/>
<path d="M892.083 554.583V583.951H914.163L965.222 587.406V535.58L901.053 533.162L889.668 552.855L892.083 554.583Z" fill="#E7E7C8"/>
<path d="M903.123 535.58L913.473 550.437L960.392 552.855" stroke="white"/>
<path d="M912.783 553.546L914.853 555.619V575.313H912.783" stroke="white"/>
<path d="M954.766 550.48V583.519H974.298L1019.47 587.405V529.102L962.701 526.381L952.63 548.537L954.766 550.48Z" fill="#E7E7C8"/>
<path d="M964.532 529.102L973.688 545.816L1015.19 548.536" stroke="white"/>
<path d="M973.077 549.314L974.908 551.646V573.801H973.077" stroke="white"/>
<path d="M1009.35 545.587V583.87H1032L1084.36 588.374V520.816L1018.55 517.664L1006.87 543.336L1009.35 545.587Z" fill="#E7E7C8"/>
<path d="M1020.67 520.816L1031.29 540.183L1079.41 543.335" stroke="white"/>
<path d="M1030.58 544.236L1032.7 546.939V572.611H1030.58" stroke="white"/>
<path d="M1060.77 539.677V588.448H1093.04L1167.67 594.186V508.119L1073.88 504.103L1057.24 536.808L1060.77 539.677Z" fill="#E7E7C8"/>
<path d="M1076.91 508.119L1092.03 532.791L1160.61 536.808" stroke="white"/>
<path d="M1091.03 537.956L1094.05 541.398V574.104H1091.03" stroke="white"/>
<path d="M1116.51 532.44V588.553H1153.59L1239.35 595.154V496.131L1131.58 491.51L1112.45 529.139L1116.51 532.44Z" fill="#E7E7C8"/>
<path d="M1135.05 496.131L1152.43 524.518L1231.23 529.139" stroke="white"/>
<path d="M1151.28 530.459L1154.75 534.42V572.049H1151.28" stroke="white"/>
<path d="M1205.68 525.333V595.605H1252.1L1359.46 603.872V479.862L1224.54 474.075L1200.6 521.199L1205.68 525.333Z" fill="#E7E7C8"/>
<path d="M1228.89 479.862L1250.65 515.412L1349.3 521.199" stroke="white"/>
<path d="M1249.2 522.852L1253.55 527.813V574.937H1249.2" stroke="white"/>
<path d="M1322.65 525.413V607.747H1384.64L1528 617.433V472.138L1347.83 465.357L1315.87 520.569L1322.65 525.413Z" fill="#E7E7C8"/>
<path d="M1353.65 472.138L1382.7 513.789L1514.44 520.57" stroke="white"/>
<path d="M1380.77 522.507L1386.58 528.319V583.531H1380.77" stroke="white"/>
<path d="M631.524 564.164V584.092H618.22L587.454 586.437V551.27L626.119 549.629L632.979 562.992L631.524 564.164Z" fill="#E7E7C8"/>
<path d="M624.872 551.27L618.636 561.351L590.364 562.992" stroke="white"/>
<path d="M619.051 563.461L617.804 564.868V578.231H619.051" stroke="white"/>
<path d="M600.156 558.303V583.475H583.455L544.834 586.437V542.015L593.372 539.942L601.983 556.822L600.156 558.303Z" fill="#E7E7C8"/>
<path d="M591.806 542.015L583.977 554.749L548.487 556.822" stroke="white"/>
<path d="M584.499 557.415L582.933 559.191V576.072H584.499" stroke="white"/>
<path d="M557.917 554.583V583.951H535.837L484.778 587.406V535.58L548.947 533.162L560.332 552.855L557.917 554.583Z" fill="#E7E7C8"/>
<path d="M546.877 535.58L536.527 550.437L489.608 552.855" stroke="white"/>
<path d="M537.217 553.546L535.147 555.619V575.313H537.217" stroke="white"/>
<path d="M495.234 550.48V583.519H475.702L430.534 587.405V529.102L487.299 526.381L497.37 548.537L495.234 550.48Z" fill="#E7E7C8"/>
<path d="M485.468 529.102L476.312 545.816L434.807 548.536" stroke="white"/>
<path d="M476.923 549.314L475.092 551.646V573.801H476.923" stroke="white"/>
<path d="M440.65 545.587V583.87H418.004L365.636 588.374V520.816L431.45 517.664L443.127 543.336L440.65 545.587Z" fill="#E7E7C8"/>
<path d="M429.327 520.816L418.712 540.183L370.589 543.335" stroke="white"/>
<path d="M419.419 544.236L417.296 546.939V572.611H419.419" stroke="white"/>
<path d="M389.228 539.677V588.448H356.958L282.333 594.186V508.119L376.118 504.103L392.758 536.808L389.228 539.677Z" fill="#E7E7C8"/>
<path d="M373.093 508.119L357.966 532.791L289.392 536.808" stroke="white"/>
<path d="M358.975 537.956L355.949 541.398V574.104H358.975" stroke="white"/>
<path d="M333.489 532.44V588.553H296.407L210.654 595.154V496.131L318.425 491.51L337.545 529.139L333.489 532.44Z" fill="#E7E7C8"/>
<path d="M314.948 496.131L297.566 524.518L218.766 529.139" stroke="white"/>
<path d="M298.725 530.459L295.248 534.42V572.049H298.725" stroke="white"/>
<path d="M244.322 525.333V595.605H197.898L90.5428 603.872V479.862L225.462 474.075L249.399 521.199L244.322 525.333Z" fill="#E7E7C8"/>
<path d="M221.11 479.862L199.349 515.412L100.698 521.199" stroke="white"/>
<path d="M200.799 522.852L196.447 527.813V574.937H200.799" stroke="white"/>
<path d="M127.351 525.413V607.747H65.3582L-78 617.433V472.138L102.166 465.357L134.131 520.569L127.351 525.413Z" fill="#E7E7C8"/>
<path d="M96.3546 472.138L67.2955 513.789L-64.4391 520.57" stroke="white"/>
<path d="M69.2328 522.507L63.421 528.319V583.531H69.2328" stroke="white"/>
<path d="M720.157 712.36C704.659 690.662 713.699 230.624 720.157 3.31729C772.851 -5.98163 837.685 14.9409 863.515 26.5646L879.013 129.24C832.519 109.092 774.4 127.303 751.153 138.926C751.153 111.03 730.489 36.8967 720.157 3.31729V712.36Z" fill="#E7E7C8"/>
<path d="M720.157 3.31729C713.699 230.624 704.659 690.662 720.157 712.36M720.157 3.31729V712.36M720.157 3.31729C730.489 36.8967 751.153 111.03 751.153 138.926C774.4 127.303 832.519 109.092 879.013 129.24L863.515 26.5646C837.685 14.9409 772.851 -5.98163 720.157 3.31729ZM720.157 712.36L586.485 739.481H809.271" stroke="#E7E7C8"/>
<path d="M827.676 614.527V515.726L838.331 509.914L714.345 454.702L581.642 509.914L596.171 515.726V614.527H827.676Z" fill="#E7E7C8"/>
<rect x="5" y="555" width="1429" height="113" fill="#E7E7C8"/>
</svg>
